# xmcd
#
# Track frame offsets:
#	150
#	12830
#	26977
#	38017
#	51445
#	63445
#	77095
#	90837
#	104310
#	118672
#	131920
#	142010
#	150905
#	164507
#
# Disc length: 2400 seconds
#
# Revision: 2
# Processed by: cddbd v1.5.1PL0 Copyright (c) Steve Scherf et al.
# Submitted via: EasyCDDAExtractor 7.0.6.1
#
DISCID=b5095e0e
DTITLE=Various Artist - Australian Country Collection CD 3
DYEAR=1900
DGENRE=Country
TTITLE0=Jean Stafford - When My Blue Eyes Turn To Gold Again
TTITLE1=Wayne Horsburgh - September Sweet Child
TTITLE2=Olive Bice - Casting My Lasso
TTITLE3=Wayne Horsburgh - Only You
TTITLE4=Judy Stone - A Cowboy's Sweetheart
TTITLE5=Col Millington - Singing Cowboy
TTITLE6=Shane Warren and Kathryn Pitt - Yodel Sweet Molly
TTITLE7=Wayne Horsburgh - Hoppy, Gene and Me
TTITLE8=Olive Bice - Grandad's Yodelling Song
TTITLE9=Greg Hind - Change His Ways
TTITLE10=Kathryn Pitt - Snowy Mountain Girl
TTITLE11=Wayne Horsburgh - Cattle Call
TTITLE12=Kathryn and Elaine Pitt - Highway Of My Dreams
TTITLE13=Kev Wade - He Coouldn't Lose His Yodel
EXTD=
EXTT0=
EXTT1=
EXTT2=
EXTT3=
EXTT4=
EXTT5=
EXTT6=
EXTT7=
EXTT8=
EXTT9=
EXTT10=
EXTT11=
EXTT12=
EXTT13=
PLAYORDER=
